USFL
nRows=117
nColumns=2
inDegrees=yes
endheader
time	soleus_r	
3.8125	 33.641510	
3.875	 33.658771	
3.9375	 33.587278	
4	 33.507979	
4.0625	 33.559084	
4.125	 33.580411	
4.1875	 33.387208	
4.25	 33.418086	
4.3125	 33.499704	
4.375	 33.380247	
4.4375	 33.318215	
4.5	 33.046019	
4.5625	 32.789167	
4.625	 32.726919	
4.6875	 32.630872	
4.75	 32.472698	
4.8125	 32.415213	
4.875	 32.201155	
4.9375	 31.936411	
5	 31.903527	
5.0625	 31.870850	
5.125	 32.008336	
5.1875	 32.020672	
5.25	 32.088888	
5.3125	 32.322229	
5.375	 32.371296	
5.4375	 32.378427	
5.5	 32.303361	
5.5625	 32.235589	
5.625	 32.463011	
5.6875	 32.537607	
5.75	 32.503277	
5.8125	 32.519486	
5.875	 32.678697	
5.9375	 32.718090	
6	 32.667629	
6.0625	 32.542799	
6.125	 32.501263	
6.1875	 32.450728	
6.25	 32.417055	
6.3125	 32.371166	
6.375	 32.316076	
6.4375	 32.317653	
6.5	 32.346838	
6.5625	 32.438946	
6.625	 32.750030	
6.6875	 32.824125	
6.75	 32.886414	
6.8125	 32.952318	
6.875	 32.917584	
6.9375	 33.060368	
7	 33.120328	
7.0625	 33.117529	
7.125	 33.216144	
7.1875	 33.236954	
7.25	 33.241805	
7.3125	 33.210805	
7.375	 33.272618	
7.4375	 33.270231	
7.5	 33.216679	
7.5625	 33.222483	
7.625	 33.228341	
7.6875	 33.247371	
7.75	 33.072329	
7.8125	 33.062327	
7.875	 33.119160	
7.9375	 33.239009	
8	 33.304177	
8.0625	 33.282304	
8.125	 33.261256	
8.1875	 33.263382	
8.25	 33.298049	
8.3125	 33.457250	
8.375	 33.467807	
8.4375	 33.571695	
8.5	 33.657099	
8.5625	 33.676567	
8.625	 33.752747	
8.6875	 33.940294	
8.75	 33.939254	
8.8125	 33.978622	
8.875	 33.973968	
8.9375	 33.980380	
9	 33.941909	
9.0625	 33.910967	
9.125	 33.904853	
9.1875	 33.951928	
9.25	 33.988650	
9.3125	 34.075646	
9.375	 34.078609	
9.4375	 34.088484	
9.5	 34.002804	
9.5625	 33.883845	
9.625	 33.870866	
9.6875	 33.834396	
9.75	 33.730176	
9.8125	 33.694095	
9.875	 33.672605	
9.9375	 33.617570	
10	 33.523622	
10.0625	 33.512351	
10.125	 33.450847	
10.1875	 33.394943	
10.25	 33.431008	
10.3125	 33.390060	
10.375	 33.416380	
10.4375	 33.412705	
10.5	 33.464032	
10.5625	 33.500441	
10.625	 33.504480	
10.6875	 33.525738	
10.75	 33.538296	
10.8125	 33.556597	
10.875	 33.499607	
10.9375	 33.493484	
11	 33.482100	
11.0625	 33.414732	
